<?xml version="1.0" encoding="UTF-8"?>
<svg width="30px" height="30px" viewBox="0 0 30 30" version="1.1" xmlns="http://www.w3.org/2000/svg" xmlns:xlink="http://www.w3.org/1999/xlink">
    <!-- Generator: Sketch 53.2 (72643) - https://sketchapp.com -->
    <title>Red-Cross Copy 3</title>
    <desc>Created with Sketch.</desc>
    <defs>
        <polygon id="path-1" points="0 0 30 0 30 30 0 30"></polygon>
    </defs>
    <g id="About-" stroke="none" stroke-width="1" fill="none" fill-rule="evenodd">
        <g id="About" transform="translate(-1033.000000, -3959.000000)">
            <g id="Our-Comparisn" transform="translate(-155.000000, 201.000000)">
                <g id="Red-Cross-Copy-3" transform="translate(1188.000000, 3758.000000)">
                    <mask id="mask-2" fill="white">
                        <use xlink:href="#path-1"></use>
                    </mask>
                    <g id="path-1"></g>
                    <path d="M20.3597386,9.64026144 C19.9903268,9.27084967 19.3920915,9.27084967 19.0236601,9.64026144 L14.9954248,13.6688235 L11.0230065,9.69666667 C10.6564052,9.33006536 10.0630719,9.33006536 9.69745098,9.69666667 C9.33084967,10.0630719 9.33084967,10.6566667 9.69745098,11.0222876 L13.6698039,14.9943791 L9.67039216,18.9937908 C9.30098039,19.3630065 9.30098039,19.9611765 9.67039216,20.3296078 C10.0398039,20.6980392 10.6377778,20.6980392 11.0062092,20.3296078 L15.0056209,16.3301961 L18.9777124,20.302549 C19.3443791,20.6688889 19.9379739,20.6688889 20.3035948,20.302549 C20.6699346,19.9359477 20.6699346,19.342549 20.3035948,18.976732 L16.3311765,15.0045752 L20.3597386,10.9763399 C20.7291503,10.6079085 20.7291503,10.0086928 20.3597386,9.64026144 Z M15,0 C6.7151634,0 0,6.7151634 0,15 C0,23.2848366 6.7151634,30 15,30 C23.2837908,30 30,23.2837908 30,15 C30,6.71620915 23.2848366,0 15,0 Z M15,28.1249673 C7.75124183,28.1249673 1.87503268,22.2487582 1.87503268,15 C1.87503268,7.75124183 7.75124183,1.87503268 15,1.87503268 C22.2487582,1.87503268 28.1249673,7.75124183 28.1249673,15 C28.1249673,22.2487582 22.2487582,28.1249673 15,28.1249673 Z" id="Fill-1" fill="#F58557" fill-rule="nonzero" mask="url(#mask-2)"></path>
                </g>
            </g>
        </g>
    </g>
</svg>